HIERARCHY
ROOT Hips
{
 OFFSET 0.000000 0.000000 0.000000
 CHANNELS 6 Xposition Yposition Zposition Yrotation Xrotation Zrotation
 JOINT Chest
 {
  OFFSET 0.000000 9.585900 0.002600
  CHANNELS 3 Yrotation Xrotation Zrotation
  JOINT Chest2
  {
   OFFSET 0.000000 9.601200 -0.005300
   CHANNELS 3 Yrotation Xrotation Zrotation
   JOINT Chest3
   {
    OFFSET 0.000000 9.561800 0.000000
    CHANNELS 3 Yrotation Xrotation Zrotation
    JOINT Chest4
    {
     OFFSET 0.000000 9.552100 0.000000
     CHANNELS 3 Yrotation Xrotation Zrotation
     JOINT Neck
     {
      OFFSET 0.000000 14.453000 0.000000
      CHANNELS 3 Yrotation Xrotation Zrotation
      JOINT Head
      {
       OFFSET 0.000000 8.936500 -0.011300
       CHANNELS 3 Yrotation Xrotation Zrotation
       End Site
       {
        OFFSET 0.000000 17.073600 -0.006000
       }
      }
     }
     JOINT RightCollar
     {
      OFFSET -2.921100 9.558500 0.000000
      CHANNELS 3 Yrotation Xrotation Zrotation
      JOINT RightShoulder
      {
       OFFSET -13.519700 0.000000 0.000000
       CHANNELS 3 Yrotation Xrotation Zrotation
       JOINT RightElbow
       {
        OFFSET 0.000000 -29.696600 0.000000
        CHANNELS 3 Yrotation Xrotation Zrotation
        JOINT RightWrist
        {
         OFFSET 0.000000 -24.004700 0.000000
         CHANNELS 3 Yrotation Xrotation Zrotation
         End Site
         {
          OFFSET 0.000000 -17.728500 0.000000
         }
        }
       }
      }
     }
     JOINT LeftCollar
     {
      OFFSET 2.921100 9.558500 0.000000
      CHANNELS 3 Yrotation Xrotation Zrotation
      JOINT LeftShoulder
      {
       OFFSET 13.519700 0.000000 0.000000
       CHANNELS 3 Yrotation Xrotation Zrotation
       JOINT LeftElbow
       {
        OFFSET 0.000000 -29.696600 0.000000
        CHANNELS 3 Yrotation Xrotation Zrotation
        JOINT LeftWrist
        {
         OFFSET 0.000000 -24.004700 0.000000
         CHANNELS 3 Yrotation Xrotation Zrotation
         End Site
         {
          OFFSET 0.000000 -17.728500 0.000000
         }
        }
       }
      }
     }
    }
   }
  }
 }
 JOINT RightHip
 {
  OFFSET -7.771700 -0.012900 -0.001300
  CHANNELS 3 Yrotation Xrotation Zrotation
  JOINT RightKnee
  {
   OFFSET 0.000000 -40.869800 0.001200
   CHANNELS 3 Yrotation Xrotation Zrotation
   JOINT RightAnkle
   {
    OFFSET 0.000000 -39.717900 0.002100
    CHANNELS 3 Yrotation Xrotation Zrotation
    JOINT RightToe
    {
     OFFSET 0.000000 -4.965400 11.033500
     CHANNELS 3 Yrotation Xrotation Zrotation
     End Site
     {
      OFFSET 0.000000 -1.423100 5.872300
     }
    }
   }
  }
 }
 JOINT LeftHip
 {
  OFFSET 7.771700 -0.012900 -0.001300
  CHANNELS 3 Yrotation Xrotation Zrotation
  JOINT LeftKnee
  {
   OFFSET 0.000000 -40.869800 0.001200
   CHANNELS 3 Yrotation Xrotation Zrotation
   JOINT LeftAnkle
   {
    OFFSET 0.000000 -39.717900 0.002100
    CHANNELS 3 Yrotation Xrotation Zrotation
    JOINT LeftToe
    {
     OFFSET 0.000000 -4.965400 11.033500
     CHANNELS 3 Yrotation Xrotation Zrotation
     End Site
     {
      OFFSET 0.000000 -1.423100 5.872300
     }
    }
   }
  }
 }
}
MOTION
Frames: 5
Frame Time: 0.008333
0.000000 85.388000 0.000000 0.000000 -5.767877 0.000000 0.000000 11.653817 0.000000 0.000000 -5.885947 0.000000 0.000000 -0.000000 0.000000 0.000000 -0.000000 0.000000 0.000000 12.528835 0.000000 0.000000 0.711642 0.000000 0.000000 -0.000000 0.000000 0.000000 0.000000 -90.000000 0.000000 -2.309062 0.000000 0.000000 2.309062 0.000000 0.000000 -0.000000 0.000000 0.000000 -0.000000 90.000000 0.000000 -2.309062 0.000000 0.000000 2.309062 0.000000 0.000000 8.520406 0.000000 0.000000 1.905762 0.000000 -0.000000 -4.658285 0.000000 0.000000 -0.000000 0.000000 0.000000 8.520406 0.000000 0.000000 1.905762 0.000000 -0.000000 -4.658285 0.000000 0.000000 -0.000000 0.000000
-125.846205 46.990242 -43.207168 171.344454 -31.572108 -4.695564 1.749775 16.643185 2.450903 0.089342 1.702721 0.191118 0.223629 2.861173 0.364276 1.472740 14.666166 2.087520 12.318156 19.734594 4.625053 21.063586 0.965390 4.732235 -2.697730 0.685754 -0.555866 5.244909 -6.177781 -16.911511 -44.589146 -61.281009 91.430939 0.355694 3.444783 -12.780013 -2.455581 -1.698992 3.480702 17.449588 -22.691681 14.915634 77.737902 -39.636203 -116.380184 6.547563 -1.291047 -15.402483 -5.976669 -54.522521 4.661756 -153.099377 77.582262 -143.607056 -9.381417 -17.623790 -5.508875 -0.109503 0.953090 -0.021937 -2.793962 -57.615411 19.765742 -115.634780 82.834305 -119.646012 6.209761 -6.005217 4.900469 0.103472 -0.046900 0.007081
-125.859328 46.988789 -43.213190 171.288145 -31.567116 -4.715192 1.734132 16.610183 2.435870 0.069326 1.695160 0.181364 0.280244 2.876092 0.394307 1.405313 14.634017 2.065043 12.211721 19.749638 4.604489 20.875262 0.988827 4.727701 -2.679946 0.716716 -0.499422 5.233608 -6.219398 -16.859898 -44.483097 -61.210183 91.281146 0.301663 3.391806 -12.767442 -2.473832 -1.682329 3.416530 17.594234 -22.706821 14.796353 77.289701 -39.342075 -115.371448 7.063307 -1.571283 -14.313146 -5.831507 -54.531538 4.755921 -153.037710 77.592056 -143.557875 -9.458132 -17.770102 -5.448041 -0.093329 0.894757 0.016942 -2.822807 -57.632564 19.783642 -116.021158 82.853336 -119.995665 6.430739 -6.046658 4.862937 0.106977 -0.049376 0.001261
-125.868890 46.985148 -43.217401 171.217209 -31.553713 -4.761317 1.745588 16.571075 2.460534 0.063874 1.695854 0.181789 0.255644 2.859925 0.383752 1.404450 14.626319 2.072735 12.109338 19.762105 4.579198 20.695755 1.008530 4.713037 -2.661682 0.739400 -0.448480 5.221583 -6.254149 -16.807855 -44.372325 -61.134524 91.137285 0.248030 3.354345 -12.748130 -2.484428 -1.669505 3.352604 17.724953 -22.711474 14.672938 76.779035 -39.026072 -114.311039 7.590018 -1.861844 -12.999883 -5.699779 -54.547050 4.892058 -152.947699 77.605969 -143.468114 -9.506616 -17.889819 -5.401617 -0.089922 0.829452 0.053729 -2.895688 -57.655471 19.909267 -116.267334 82.852440 -120.216108 6.544083 -6.083738 4.846788 0.110313 -0.042264 -0.003792
-125.882990 46.980226 -43.223720 171.175591 -31.546735 -4.796185 1.667010 16.541103 2.413205 0.118588 1.701920 0.213468 0.229003 2.846240 0.373447 1.402913 14.617722 2.081381 12.008308 19.769624 4.549651 20.520217 1.019669 4.689748 -2.647638 0.754012 -0.402918 5.265079 -6.252438 -16.801236 -44.385164 -61.036512 91.078897 0.201674 3.329207 -12.722931 -2.491457 -1.657022 3.293199 17.832058 -22.698922 14.542846 76.232829 -38.682723 -113.218381 8.119113 -2.163106 -11.451321 -5.536340 -54.557722 4.961060 -152.863656 77.621308 -143.378238 -9.544461 -17.991343 -5.365874 -0.085189 0.761444 0.092936 -2.948717 -57.671615 19.976076 -116.537199 82.851525 -120.433477 6.582806 -6.117023 4.794008 0.154589 -0.032190 0.011250
